<?xml version="1.0" encoding="utf-8"?>
<!-- Generator: Adobe Illustrator 27.9.0, SVG Export Plug-In . SVG Version: 6.00 Build 0)  -->
<svg version="1.1" id="Capa_1" xmlns="http://www.w3.org/2000/svg" xmlns:xlink="http://www.w3.org/1999/xlink" x="0px" y="0px"
	 viewBox="0 0 500 500" style="enable-background:new 0 0 500 500;" xml:space="preserve">
<style type="text/css">
	.st0{fill:#FFFFFF;}
	.st1{fill:#FDDF1E;}
	.st2{fill:#FADE33;}
	.st3{fill:#FADE35;}
	.st4{fill:#FADE30;}
	.st5{fill:#F9DD28;}
	.st6{fill:#FFFFFC;}
	.st7{fill:#FFFFFD;}
	.st8{fill:#FFFEFB;}
	.st9{fill:#F9DF37;}
	.st10{fill:#FFFEF8;}
	.st11{fill:#FCEA10;}
</style>
<path class="st0" d="M106.5,391.2c0-73.7,0-147.3,0-221c92.3,0,184.7,0,277,0c0,73.7,0,147.3,0,221
	C291.2,391.2,198.8,391.2,106.5,391.2z M199.6,304.1c-2.2,0.1-3.8,0.3-5.4,0.3c-10.3,0-20.6-0.2-30.9,0.1c-1.7,0-3.2,2.3-4.9,3.5
	c1.6,1.3,3.1,3.8,4.7,3.8c10.9,0.3,21.9,0.2,32.9,0c1.8,0,4.3-0.8,5-2c0.9-1.5,0.2-3.9,0.2-6c1.8,0.3,4.1,0.7,6.6,1.1
	c-0.9,4.7-1.8,8.8-2.5,13c-0.9,5.4-0.4,10.1,5.4,13c3.4,1.7,6.3,4.1,9.5,6.2c12.6,8.4,25.1,16.9,37.8,25.2c1.8,1.1,4.5,2,6.4,1.6
	c17.8-4.4,35.5-9,53.3-13.6c5.5-1.4,10.9-3.1,11.8-10.1c0.8-6.4,2.1-12.8,3.1-19.2c1.9-11.2,3.9-22.3,5.5-33.5
	c0.8-5.2,3.7-10.9-2.8-15.1c-15-9.8-30.1-19.7-44.8-29.9c-5.8-4-11.2-4.3-17.6-2.2c-5.2,1.6-11.1,3.6-16.1,2.6
	c-11.4-2.1-22.5-5.9-33.7-9.1c-7-1.9-14.1-3.9-22.2-6.1c2.2,16.8,12.9,22.1,27.1,24.3c-3.9,0.8-7.5,0.8-10.8,0
	c-5.2-1.3-10.2-3.3-15.3-4.8c-14.6-4.1-29.3-8-43.9-12.2c-5.4-1.5-10.7,2.1-10.2,7.6c0.9,10.2,5.4,18.4,14,24.4
	c1.9,1.4,3.6,3.7,4.5,5.9c3.3,8.8,8.5,15.6,17.2,20C189,295.6,193.8,300,199.6,304.1L199.6,304.1z M190.6,353.3L190.6,353.3
	c-13.9,0-27.9-0.1-41.8,0.1c-1.5,0-4.2,1.7-4.2,2.5c0.1,1.7,1.2,4.1,2.6,4.9c2,1.1,4.7,1.3,7.1,1.3c24.2,0.1,48.4,0.1,72.6,0
	c2.3,0,4.8-0.1,6.7-1.1c1.4-0.8,3-3.3,2.7-4.6c-0.3-1.3-2.9-2.9-4.5-2.9C218.2,353.2,204.4,353.3,190.6,353.3L190.6,353.3z
	 M162.4,336.6C162.4,336.6,162.4,336.5,162.4,336.6c11.8,0,23.5,0,35.3-0.1c1.4,0,4-1.3,3.9-1.7c-0.2-1.9-0.7-4.2-2-5.4
	c-1.3-1.1-3.6-1.5-5.5-1.5c-20.9-0.1-41.8-0.1-62.6,0c-1.6,0-3.5,0.1-4.7,0.9c-1.6,1.1-3.5,3-3.5,4.5c-0.1,2.5,1.9,3.5,4.9,3.4
	C139.5,336.4,150.9,336.6,162.4,336.6L162.4,336.6z"/>
<path class="st0" d="M173.4,269.4c11.6,2.4,22.2,3.9,32.3-1.2c0.1-0.8,0.1-1.5,0.2-2.2c-2.4-0.4-4.9-1.4-7.2-1
	c-11.1,1.7-21.8,1-31.8-4.7c-6.7-3.8-10.1-9.8-10.8-17.6c14,3.9,27.6,7.6,41.1,11.6c9.2,2.8,18.6,5,26.5,11.2
	c9.3,7.4,8.2,22.1-2,28.6c-9.7,6.1-18,3.4-27.4-3.3c3.1-1,5.4-1.5,7.6-2.4c4.3-1.7,8.7-3.5,12.8-5.6c1-0.5,1.1-2.6,1.6-4
	c-1.4-0.3-3.1-1.1-4.3-0.7c-7.2,2.3-14.3,4.9-21.5,7.3c-3.5,1.2-10.2-2.5-12.6-6.8C176.6,275.7,175.3,272.9,173.4,269.4L173.4,269.4
	z"/>
<g>
	<path class="st0" d="M495.1,251.3c0,81.8,0,163.6,0.1,245.4c0,3.4-0.7,4.1-4.1,4.1c-163.9-0.1-327.9-0.1-491.8,0
		c-3.4,0-4.1-0.7-4.1-4.1c0.1-164,0.1-327.9,0-491.8c0-3.4,0.7-4.1,4.1-4.1c163.9,0.1,327.9,0.1,491.8,0c3.4,0,4.1,0.7,4.1,4.1
		C495.1,87,495.1,169.2,495.1,251.3L495.1,251.3z M222.9,211.9c0,1.7,0,3.3,0,5c0,15.1,0,15,15.3,14.5c3.8-0.1,5.4-1.6,5.3-5.4
		c-0.1-9.1,0.1-18.3-0.1-27.4c-0.1-4.2,1.1-7.7,3.3-11.2c8.4-13.5,16.7-27.1,25-40.6c1.9-3,1-4.2-2.4-4.1c-3.1,0.1-6.3,0.2-9.5,0
		c-3.4-0.3-5.5,0.9-7.1,4c-4.9,9-10.3,17.8-15,26.9c-2.4,4.7-3.7,3.1-5.6-0.1c-5-9-10.2-17.9-15.1-26.9c-1.4-2.6-3.1-4-6.2-3.8
		c-4.8,0.2-9.6,0.1-14.4,0c-4.1-0.1-4,1.8-2.4,4.6c6.4,10.6,12.5,21.5,19.3,31.9C219.8,189.2,225.9,199.1,222.9,211.9L222.9,211.9z
		 M156,312.4c0-6.5,0-13,0-19.4c0-3.9-1.8-6.5-5.8-6.6c-11.8-0.2-23.6-0.3-35.4-0.3c-3.2,0-4.9,1.7-4.8,5c0.1,1.5,0,3,0,4.5
		c0,7.4,3.7,11.3,11.1,11.7c0.9,0,2.1-0.4,2.7,0.6c0.7,1.3-0.4,2.1-1.2,3c-5.7,6-16.6,4.7-19.6-3.1c-4.8-12.5-4.8-25.4,0-37.9
		c2.5-6.5,9.9-8.2,15.9-4.6c3.4,2.1,5,5.1,5.7,8.9c0.8,4,3,5.5,7.2,4.6c5.4-1.1,10.8-1.8,16.2-2.7c7.2-1.2,8.5-3.2,5.8-10.1
		c-5.4-13.7-15.4-22.1-29.9-24.9c-17.2-3.3-32.6-0.2-45.1,13.1c-10.7,11.4-13.3,25.2-12.5,40.1c1.1,21.1,14.5,38.3,32.8,42.5
		c10.8,2.5,21.4,2.4,31.4-3.1c2.2-1.2,3.9-3.7,6.1-4.1c3.1-0.5,3.5,3.4,5.3,5.1c3.4,3.2,7.3,3,11.2,1.9c3.7-1,2.8-4.5,2.8-7.2
		C156,323.7,155.9,318.1,156,312.4L156,312.4z M348.5,288.8c0,14,0.1,27.9,0,41.9c0,4.1,1.4,6.4,5.7,6.4c21.8,0,43.5,0,65.3,0
		c3.9,0,5.6-2.3,5.6-6.1c0-4.1,0-8.3,0-12.5c0-4.2-1.8-6.4-6.4-6.3c-10.3,0.2-20.6,0.1-30.9,0c-8.7,0-6.5,0.6-7.3-7.2
		c-0.3-3.2,1-4,3.9-3.9c5.6,0.2,11.3,0,17,0.1c4.4,0.1,6.4-2.1,6.5-6.3c0-3.8,0.1-7.6,0-11.5c-0.1-5.2-1.6-6.7-7-6.8
		c-5.1-0.1-10.3-0.2-15.5,0.1c-3.8,0.2-5-1.2-4.8-4.9c0.2-3.3-0.3-6.1,4.7-6c10.1,0.3,20.3,0.1,30.4,0.1c6.6,0,8.1-1.4,8.2-7.7
		c0.1-3.6,0-7.3,0.1-11c0.2-4.4-1.7-6.1-6.2-6.1c-21.1,0.2-42.2,0.2-63.3,0c-4.7,0-6.1,1.8-6.1,6.2
		C348.6,261.2,348.5,274.9,348.5,288.8L348.5,288.8z M208.1,241.3c-3.3,0-6.7,0.3-10-0.1c-5-0.5-7.7,1.5-9.2,6.2
		c-3.7,11-7.6,21.9-11.5,32.8c-5.7,16.2-11.5,32.5-17.1,48.8c-1.9,5.4,0,7.9,5.6,8c4,0.1,8,0,12,0c5.6,0,9.4-2.6,11.5-7.9
		c2.6-6.6,7.5-10,14.8-10c4.5,0,9.7-1.3,13.2,0.6c3.9,2,3.9,8,5.5,12.3c1.4,3.8,3.7,5.1,7.5,5c5.8-0.1,11.6,0,17.4,0
		c8.7,0,10.1-1.6,7.3-10.1c-3.5-10.7-7.6-21.2-11.3-31.9c-5.4-15.3-10.6-30.7-16-46c-2.5-7.2-3.6-7.8-10.7-7.8
		C214,241.3,211.1,241.3,208.1,241.3L208.1,241.3z M300.6,241.3c-11.8,0-23.6,0-35.4,0c-5.6,0-6.6,1-6.7,6.8c0,3.6,0.1,7.3,0,11
		c-0.1,4.4,1.8,6.5,6.2,6.4c4.6-0.1,9.3,0.2,13.9-0.1c4.5-0.3,6,1,5.9,5.7c-0.3,19.8-0.1,39.5-0.1,59.3c0,5.7,1.1,6.7,6.7,6.8
		c5.5,0,11,0,16.4,0c8.6,0,9.1-0.5,9.1-8.9c0-19.4,0.1-38.9-0.1-58.3c0-3.5,1-4.7,4.5-4.5c5.3,0.2,10.6,0,15.9,0.1
		c3.8,0.1,5.5-1.8,5.5-5.4c0-4,0.1-8,0-12c-0.1-5.9-0.8-6.6-6.6-6.7C324.2,241.2,312.4,241.3,300.6,241.3L300.6,241.3z"/>
	<path class="st1" d="M221.6,212c3-12.8-3-22.7-9.6-32.8c-6.8-10.4-12.9-21.2-19.3-31.9c-1.7-2.8-1.8-4.7,2.4-4.6
		c4.8,0.1,9.6,0.2,14.4,0c3.1-0.1,4.8,1.2,6.2,3.8c4.9,9,10.1,17.9,15.1,26.9c1.8,3.2,3.1,4.8,5.6,0.1c4.8-9.1,10.1-17.9,15-26.9
		c1.6-3,3.7-4.3,7.1-4c3.1,0.3,6.3,0.1,9.5,0c3.4-0.1,4.2,1.1,2.4,4.1c-8.4,13.5-16.6,27.1-25,40.6c-2.2,3.5-3.4,7-3.3,11.2
		c0.2,9.1,0,18.3,0.1,27.4c0.1,3.8-1.5,5.3-5.3,5.4c-15.3,0.5-15.3,0.5-15.3-14.5C221.6,215.3,221.6,213.7,221.6,212L221.6,212z"/>
	<path class="st2" d="M154.7,312.6c0,5.6,0.1,11.3,0,17c0,2.7,0.9,6.1-2.8,7.2c-3.9,1.1-7.8,1.2-11.2-1.9c-1.9-1.7-2.2-5.7-5.3-5.1
		c-2.2,0.4-3.9,2.9-6.1,4.1c-10,5.5-20.6,5.6-31.4,3.1c-18.3-4.2-31.7-21.3-32.8-42.5c-0.8-14.9,1.8-28.7,12.5-40.1
		c12.5-13.3,27.9-16.4,45.1-13.1c14.5,2.8,24.5,11.2,29.9,24.9c2.7,6.9,1.4,8.9-5.8,10.1c-5.4,0.9-10.8,1.6-16.2,2.7
		c-4.1,0.9-6.4-0.6-7.2-4.6c-0.7-3.8-2.3-6.8-5.7-8.9c-6-3.6-13.4-2-15.9,4.6c-4.7,12.5-4.8,25.5,0,37.9c3,7.8,13.9,9.1,19.6,3.1
		c0.8-0.8,1.9-1.6,1.2-3c-0.6-1.1-1.8-0.6-2.7-0.6c-7.4-0.4-11.1-4.4-11.1-11.7c0-1.5,0.1-3,0-4.5c-0.1-3.3,1.6-5,4.8-5
		c11.8,0,23.6,0.1,35.4,0.3c4,0.1,5.8,2.7,5.8,6.6C154.7,299.6,154.7,306.1,154.7,312.6L154.7,312.6z M150.5,311.9
		C150.5,311.9,150.5,311.9,150.5,311.9c-0.1-5.5-0.2-11,0-16.4c0.1-3.4-1.2-4.3-4.4-4.3c-9.1,0-18.3,0.1-27.4-0.3
		c-4.9-0.2-5.9,1.5-6.1,6.1c-0.2,5.3,1.7,6.8,6.5,6.2c1.6-0.2,3.3-0.1,5,0c4.2,0.4,5.2,2,3.6,5.9c-2.7,6.4-8.8,10.3-15.7,10.1
		c-7-0.2-12.8-4.1-15.1-11c-4-12.5-4-25.1-0.3-37.7c1.8-6.1,5.4-10.3,12-11.1c7.1-0.8,13,1.1,16.9,7.8c4.1,7.1,4.3,7,12.8,5.6
		c1.8-0.3,3.6-0.4,5.4-0.6c5.3-0.9,6.1-1.9,3.7-6.7c-4.7-9.8-12.3-16.1-22.8-19.3c-15.1-4.6-36.2-0.7-46.8,14.6
		c-8.2,11.9-10.2,25.1-7.7,38.9c2.5,13.8,9.1,25.1,22.7,30.6c14.3,5.8,28.2,6.1,40.2-5.6c2.7-2.6,4.9-2.2,6.8,1
		c1.1,1.8,2.4,3.6,3.7,5.3c1.3,1.6,3.1,1.8,5,1.4c2.3-0.5,1.8-2.5,1.8-4.1C150.5,322.9,150.5,317.4,150.5,311.9L150.5,311.9z"/>
	<path class="st3" d="M347.2,288.9c0-13.8,0.1-27.6,0-41.4c0-4.4,1.4-6.2,6.1-6.2c21.1,0.2,42.2,0.2,63.3,0c4.6,0,6.4,1.6,6.2,6.1
		c-0.1,3.6,0,7.3-0.1,11c-0.1,6.3-1.6,7.7-8.2,7.7c-10.1,0-20.3,0.2-30.4-0.1c-5-0.2-4.5,2.6-4.7,6c-0.2,3.7,0.9,5.1,4.8,4.9
		c5.1-0.3,10.3-0.1,15.5-0.1c5.4,0.1,6.9,1.5,7,6.8c0.1,3.8,0,7.6,0,11.5c0,4.2-2,6.4-6.5,6.3c-5.6-0.1-11.3,0.1-17-0.1
		c-3-0.1-4.2,0.7-3.9,3.9c0.7,7.8-1.5,7.1,7.3,7.2c10.3,0,20.6,0.1,30.9,0c4.5-0.1,6.4,2.1,6.4,6.3c0,4.1,0,8.3,0,12.5
		c0,3.8-1.8,6.1-5.6,6.1c-21.8,0-43.5,0-65.3,0c-4.2,0-5.7-2.3-5.7-6.4C347.3,316.8,347.2,302.9,347.2,288.9L347.2,288.9z
		 M351.4,288.9c0,13,0.2,25.9-0.1,38.9c-0.1,4.1,1.4,5,5.2,5c17.3-0.2,34.6-0.1,51.9-0.1c11,0,10.8,0,11-11c0.1-4-1.3-4.7-4.9-4.6
		c-11,0.2-21.9,0-32.9,0.1c-4.5,0-7-1.5-6.5-6.4c0.2-2.5,0.3-5,0-7.5c-0.5-4.9,2-6.5,6.4-6.5c5.8,0,11.6-0.1,17.5,0
		c2.3,0,3.1-0.7,3.3-3.1c0.8-12.3,0.9-12.3-11.5-12.3c-0.7,0-1.3,0-2,0c-14.1,0-14,0-13.7-14c0.1-4.2,1.9-6,6.1-6
		c8.6,0.1,17.3,0,25.9,0c11.1,0,11,0,11.1-11.4c0-3.4-0.8-4.6-4.4-4.5c-19.3,0.2-38.6,0.1-57.8,0c-3.4,0-4.6,0.9-4.6,4.5
		C351.6,263,351.4,275.9,351.4,288.9L351.4,288.9z"/>
	<path class="st4" d="M206.8,241.4c3,0,6,0,9,0c7.1,0,8.2,0.6,10.7,7.8c5.4,15.3,10.6,30.7,16,46c3.7,10.6,7.8,21.1,11.3,31.9
		c2.8,8.5,1.4,10.1-7.3,10.1c-5.8,0-11.6-0.1-17.4,0c-3.8,0.1-6.1-1.2-7.5-5C219.9,328,220,322,216,320c-3.6-1.9-8.8-0.6-13.2-0.6
		c-7.3,0-12.2,3.3-14.8,10c-2,5.3-5.9,7.9-11.5,7.9c-4,0-8,0.1-12,0c-5.6-0.1-7.5-2.7-5.6-8c5.6-16.3,11.4-32.5,17.1-48.8
		c3.9-10.9,7.8-21.8,11.5-32.8c1.6-4.7,4.3-6.7,9.2-6.2C200.1,241.7,203.5,241.5,206.8,241.4L206.8,241.4z M206.6,245.6
		c-3,0-6,0.2-9-0.1c-3.8-0.4-5.1,1.4-6.2,4.8c-4.9,14.4-10,28.8-15.1,43.2c-4.2,12-8.5,24.1-12.8,36.1c-0.7,1.9-1,3.3,1.7,3.2
		c5.5-0.1,11.5,1.1,16.2-0.8c3.8-1.5,3.3-7.9,5-11.9c0.1-0.1,0.1-0.3,0.1-0.5c0.7-3,2.6-4.4,5.8-4.3c5.1,0.1,10.3,0,15.5,0
		c8.4,0,13.9,4,16.6,12c0.2,0.5,0.2,1,0.4,1.4c0.8,2.9,2.5,4.3,5.8,4.1c5.3-0.3,10.6-0.2,15.9,0c3.6,0.1,4.2-0.8,3-4.2
		c-8.4-23.4-16.6-46.9-24.9-70.3C221.7,249.8,215.7,245.6,206.6,245.6L206.6,245.6z"/>
	<path class="st5" d="M299.3,241.5c11.8,0,23.6,0,35.4,0c5.8,0,6.5,0.7,6.6,6.7c0.1,4,0,8,0,12c0,3.7-1.7,5.5-5.5,5.4
		c-5.3-0.1-10.6,0.2-15.9-0.1c-3.5-0.2-4.5,1.1-4.5,4.5c0.1,19.4,0.1,38.9,0.1,58.3c0,8.4-0.5,8.9-9.1,8.9c-5.5,0-11,0-16.4,0
		c-5.6,0-6.7-1-6.7-6.8c0-19.8-0.2-39.5,0.1-59.3c0.1-4.8-1.5-6-5.9-5.7c-4.6,0.4-9.3,0-13.9,0.1c-4.5,0.1-6.4-2-6.2-6.4
		c0.1-3.7,0-7.3,0-11c0.1-5.8,1-6.8,6.7-6.8C275.8,241.4,287.5,241.5,299.3,241.5L299.3,241.5z M299.6,245.6c-11.3,0-22.6,0-33.9,0
		c-1.5,0-3.9-0.8-4.1,1.6c-0.3,4.1-0.3,8.3,0,12.4c0.1,2.1,2.2,1.6,3.6,1.6c5.1,0,10.3,0,15.5,0c6.5,0,6.7,0.3,6.7,6.8
		c0,19.8,0.2,39.5-0.1,59.3c-0.1,4.8,1.6,6.1,6,5.7c3.5-0.3,7-0.1,10.5-0.1c4.9,0,7.4-2.5,7.4-7.6c0-19.4,0.1-38.9-0.1-58.3
		c0-4.3,1.4-6.1,5.8-5.8c3.1,0.2,6.3,0.1,9.5,0c13.1-0.3,10.6,2.3,11-11.5c0.1-3.3-1.1-4.3-4.3-4.2
		C321.9,245.7,310.7,245.6,299.6,245.6L299.6,245.6z"/>
	<path class="st6" d="M150.5,311.9c0,5.5,0,11,0,16.5c0,1.6,0.5,3.6-1.8,4.1c-1.9,0.4-3.7,0.3-5-1.4c-1.3-1.7-2.6-3.5-3.7-5.3
		c-1.9-3.2-4.1-3.6-6.8-1c-12.1,11.6-26,11.4-40.2,5.6c-13.5-5.5-20.2-16.8-22.7-30.6c-2.5-13.9-0.6-27,7.7-38.9
		c10.6-15.3,31.7-19.1,46.7-14.6c10.5,3.2,18.1,9.6,22.8,19.3c2.3,4.8,1.6,5.8-3.7,6.7c-1.8,0.3-3.6,0.4-5.4,0.6
		c-8.5,1.3-8.7,1.4-12.8-5.6c-3.9-6.7-9.8-8.6-16.9-7.8c-6.6,0.8-10.2,5-12,11.1C93,283.1,93,295.8,97,308.3c2.2,6.8,8,10.8,15.1,11
		c6.9,0.2,13.1-3.8,15.7-10.1c1.6-3.9,0.6-5.6-3.6-5.9c-1.6-0.1-3.3-0.2-5,0c-4.8,0.7-6.7-0.9-6.5-6.2c0.1-4.7,1.1-6.4,6.1-6.1
		c9.1,0.5,18.3,0.4,27.4,0.3c3.2,0,4.5,0.9,4.4,4.3C150.3,301,150.5,306.5,150.5,311.9C150.5,311.9,150.5,311.9,150.5,311.9
		L150.5,311.9z"/>
	<path class="st7" d="M351.4,288.9c0-13,0.1-25.9-0.1-38.9c0-3.5,1.2-4.5,4.6-4.5c19.3,0.1,38.6,0.2,57.8,0c3.6,0,4.4,1.1,4.4,4.5
		c-0.1,11.3,0,11.3-11.1,11.4c-8.6,0-17.3,0.1-25.9,0c-4.2,0-5.9,1.8-6.1,6c-0.4,14-0.5,14,13.7,14c0.7,0,1.3,0,2,0
		c12.3,0,12.3,0,11.5,12.3c-0.1,2.4-1,3.2-3.3,3.1c-5.8-0.1-11.6,0-17.5,0c-4.5,0-6.9,1.6-6.4,6.5c0.3,2.5,0.2,5,0,7.5
		c-0.5,5,2,6.5,6.5,6.4c11-0.1,21.9,0.1,32.9-0.1c3.5-0.1,4.9,0.7,4.9,4.6c-0.2,11,0,11-11,11c-17.3,0-34.6-0.1-51.9,0.1
		c-3.8,0-5.2-0.9-5.2-5C351.6,314.8,351.4,301.9,351.4,288.9L351.4,288.9z"/>
	<path class="st7" d="M206.6,245.6c9.1,0,15.1,4.2,18.1,12.6c8.3,23.4,16.5,46.9,24.9,70.3c1.2,3.4,0.6,4.4-3,4.2
		c-5.3-0.2-10.6-0.2-15.9,0c-3.3,0.2-5-1.2-5.8-4.1c-0.1-0.5-0.2-1-0.4-1.4c-2.7-8-8.3-12-16.6-12c-5.1,0-10.3,0.1-15.5,0
		c-3.1-0.1-5,1.3-5.8,4.3c0,0.2-0.1,0.3-0.1,0.5c-1.7,4.1-1.2,10.4-5,11.9c-4.8,1.9-10.8,0.7-16.2,0.8c-2.7,0-2.4-1.3-1.7-3.2
		c4.3-12,8.6-24,12.8-36.1c5.1-14.4,10.2-28.7,15.1-43.2c1.1-3.3,2.4-5.2,6.2-4.8C200.5,245.8,203.6,245.6,206.6,245.6L206.6,245.6z
		 M204.3,298.3c2,0,4,0,6,0c3.9,0.1,5.2-2.1,4.1-5.4c-2.1-6.6-4.5-13.1-6.9-19.6c-0.6-1.5-1.3-3.4-3.3-3.3c-2.2,0-2.9,2-3.5,3.7
		c-1.5,4.2-2.8,8.5-4.4,12.6C191.7,298.2,191.7,298.3,204.3,298.3L204.3,298.3z"/>
	<path class="st8" d="M299.6,245.6c11.1,0,22.3,0.1,33.4-0.1c3.2-0.1,4.4,0.9,4.3,4.2c-0.4,13.8,2.1,11.2-11,11.5
		c-3.2,0.1-6.3,0.2-9.5,0c-4.4-0.3-5.8,1.5-5.8,5.8c0.2,19.4,0.1,38.9,0.1,58.3c0,5.1-2.5,7.6-7.4,7.6c-3.5,0-7-0.2-10.5,0.1
		c-4.4,0.4-6-0.9-6-5.7c0.3-19.8,0.1-39.5,0.1-59.3c0-6.5-0.3-6.8-6.7-6.8c-5.1,0-10.3,0-15.5,0c-1.4,0-3.5,0.5-3.6-1.6
		c-0.2-4.1-0.3-8.3,0-12.4c0.2-2.4,2.6-1.6,4.1-1.6C277,245.6,288.3,245.6,299.6,245.6L299.6,245.6z"/>
	<path class="st9" d="M204.3,298.3c-12.6,0-12.7-0.1-8-12.1c1.6-4.1,2.9-8.4,4.4-12.6c0.6-1.7,1.3-3.7,3.5-3.7c2,0,2.7,1.8,3.3,3.3
		c2.4,6.5,4.8,13,6.9,19.6c1.1,3.3-0.2,5.5-4.1,5.4C208.3,298.3,206.3,298.3,204.3,298.3L204.3,298.3z M204.1,278.6
		c-1.2,2.7-2.2,5.1-3.2,7.5c-3.1,7.8-2.7,8.3,5.9,7.5c0.2,0,0.3,0,0.5,0c2.1,0,2.5-0.9,1.8-2.8C207.5,286.9,206.4,282.8,204.1,278.6
		L204.1,278.6z"/>
	<path class="st10" d="M204.1,278.6c2.4,4.1,3.4,8.3,5,12.2c0.8,2,0.3,2.8-1.8,2.8c-0.2,0-0.3,0-0.5,0c-8.6,0.8-9,0.3-5.9-7.5
		C201.8,283.8,202.9,281.4,204.1,278.6L204.1,278.6z"/>
	<g>
		<path d="M324.3,163.6c1.6,1.1,0.9,2.6,0.7,3.9c-0.4,2.9-0.9,5.8-1.4,8.8c-0.3,1.7-0.6,3.3-0.8,5c-0.2,1.8-1.6,2.3-2.9,2.6
			c-4.4,1.2-8.8,2.4-13.2,3.6c-0.5,0.1-1.2-0.1-1.6-0.4c-3.1-2.2-6.2-4.4-9.3-6.6c-0.8-0.5-1.5-1.2-2.3-1.6c-1.4-0.7-1.6-2-1.3-3.4
			c0.2-1.1,0.4-2.2,0.6-3.4c-0.6-0.1-1.2-0.2-1.6-0.3c0,0,0,0.1,0,0.1l-0.4,0c-1.4-1.1-2.6-2.2-4-2.9c-2.2-1.1-3.4-2.9-4.3-5.2
			c-0.2-0.6-0.6-1.2-1.1-1.5c-2.1-1.6-3.2-3.7-3.5-6.4c-0.1-1.4,1.2-2.4,2.5-2c3.6,1.1,7.2,2.1,10.8,3.2c1.3,0.4,2.5,0.9,3.8,1.2
			c0.8,0.2,1.7,0.2,2.7,0c-3.5-0.6-6.2-2-6.7-6.4c2,0.6,3.7,1.1,5.5,1.6c2.8,0.8,5.5,1.8,8.3,2.4c1.3,0.2,2.7-0.3,4-0.7
			c1.6-0.5,2.9-0.5,4.4,0.6C316.9,158.5,320.6,161.1,324.3,163.6L324.3,163.6z M323,168.8c0.1-0.9,0.4-2,0.3-3
			c0-0.5-0.9-0.9-1.4-1.3c-3.3-2.4-6.7-4.8-10.1-7.2c-0.5-0.3-1.2-0.5-1.7-0.4c-3.6,0.9-7.3,2-10.9,3c-0.9,0.2-1.1,0.5-0.4,1.4
			c2.7,3.3,1.5,9-3,10.5c-1.2,0.4-1.4,1.1-1.6,2.1c-0.2,0.8,0.2,1.2,1,1c4.1-1.2,8.3-2.3,12.4-3.4c0.6-0.2,1.4-0.1,1.9,0.2
			c2.2,1.5,4.3,3.1,6.5,4.6c1.6,1.2,3.3,2.3,5.2,3.7c0.4-2.7,0.8-5,1.2-7.2c0,0-0.1,0-0.1,0v0L323,168.8L323,168.8L323,168.8z
			 M296.2,169.3c2.5-1.7,2.8-5.5,0.5-7.5c-1.9-1.6-4.3-2.2-6.5-2.9c-3.3-1.1-6.7-2-10.2-3c0.2,2,1,3.6,2.7,4.6
			c2.5,1.5,5.1,1.7,7.9,1.2c0.6-0.1,1.2,0.2,1.8,0.3c0,0.2,0,0.4,0,0.6c-2.5,1.3-5.1,0.9-8,0.3c0.4,0.9,0.8,1.6,1.2,2.4
			c0.6,1.1,2.2,2.1,3.1,1.8c1.8-0.6,3.5-1.3,5.3-1.9c0.3-0.1,0.7,0.1,1.1,0.2c-0.1,0.4-0.2,0.9-0.4,1c-1,0.6-2.1,1-3.2,1.5
			c-0.6,0.2-1.1,0.4-1.9,0.6C291.8,170.2,293.8,170.9,296.2,169.3z"/>
		<path class="st11" d="M323.3,165.8c0.1,1-0.2,2.1-0.3,3l-0.1,0l-0.6,3.9v0c0,0,0.1,0,0.1,0c-0.4,2.2-0.8,4.6-1.2,7.2
			c-1.9-1.4-3.6-2.5-5.2-3.7c-2.2-1.5-4.3-3.1-6.5-4.6c-0.5-0.3-1.3-0.4-1.9-0.2c-4.1,1.1-8.3,2.2-12.4,3.4c-0.9,0.2-1.2-0.2-1-1
			c0.2-0.9,0.3-1.6,1.6-2.1c4.5-1.5,5.7-7.2,3-10.5c-0.7-0.8-0.4-1.1,0.4-1.4c3.6-1,7.3-2,10.9-3c0.5-0.1,1.3,0.1,1.7,0.4
			c3.4,2.4,6.7,4.8,10.1,7.2C322.5,164.9,323.3,165.3,323.3,165.8L323.3,165.8z M320.5,173.6c1.3-0.3,2.2-1.6,1.9-3
			c-0.3-1.3-1.6-2.2-2.9-1.9c-0.4,0.1-0.8,0.3-1.1,0.6c0.3-0.6,0.3-1.4,0-2c-0.5-1.2-2-1.7-3.2-1.1c-0.2,0.1-0.4,0.2-0.5,0.4
			c0.1-0.2,0.1-0.4,0.1-0.6c0-1.4-1.1-2.5-2.5-2.5s-2.5,1.1-2.5,2.5s1.1,2.5,2.5,2.5c0.6,0,1.1-0.2,1.6-0.5
			c-0.2,0.6-0.1,1.2,0.1,1.7c0.5,1.2,2,1.7,3.2,1.1c0.2-0.1,0.4-0.2,0.6-0.4c-0.2,0.5-0.3,1-0.2,1.5
			C317.8,173,319.1,173.9,320.5,173.6L320.5,173.6z"/>
		<path d="M322.4,170.6c0.3,1.3-0.6,2.7-1.9,3c-1.3,0.3-2.7-0.5-2.9-1.9c-0.1-0.5,0-1,0.2-1.5c0.3-0.3,0.5-0.6,0.7-0.9
			c0.3-0.3,0.7-0.5,1.1-0.6C320.8,168.4,322.1,169.3,322.4,170.6L322.4,170.6z"/>
		<path d="M318.4,167.3c0.3,0.7,0.3,1.4,0,2c-0.3,0.2-0.5,0.6-0.7,0.9c-0.2,0.2-0.4,0.3-0.6,0.4c-1.3,0.6-2.7,0.1-3.2-1.1
			c-0.2-0.5-0.3-1.1-0.1-1.7c0.4-0.3,0.7-0.8,0.8-1.3c0.2-0.1,0.3-0.3,0.5-0.4C316.4,165.5,317.9,166,318.4,167.3z"/>
		<path d="M318.4,169.3c-0.2,0.3-0.4,0.7-0.7,0.9C317.9,169.9,318.1,169.5,318.4,169.3z"/>
		<path d="M314.7,165.8c0,0.2,0,0.4-0.1,0.6c-0.4,0.3-0.7,0.8-0.8,1.3c-0.4,0.3-1,0.5-1.6,0.5c-1.4,0-2.5-1.1-2.5-2.5
			s1.1-2.5,2.5-2.5C313.6,163.4,314.7,164.5,314.7,165.8L314.7,165.8z"/>
		<path d="M314.6,166.5c-0.1,0.5-0.4,1-0.8,1.3C313.9,167.3,314.2,166.8,314.6,166.5z"/>
		<path d="M291.2,172c0,0.5,0.2,1.1-0.1,1.5c-0.2,0.3-0.8,0.5-1.2,0.5c-2.7,0.1-5.4,0.1-8.1,0c-0.4,0-0.8-0.6-1.2-1
			c0.4-0.3,0.8-0.9,1.2-0.9c2.5-0.1,5.1,0,7.6,0c0.4,0,0.8,0,1.3-0.1L291.2,172z"/>
	</g>
	<path class="st1" d="M293.4,191.9c-4.2,0-8.4,0-12.6,0c-1.1,0-1.8-0.2-1.8-0.9c0-0.4,0.7-0.9,1.3-1.2c0.4-0.2,1.1-0.2,1.7-0.3
		c7.7,0,15.4,0,23.1,0c0.7,0,1.5,0.1,2,0.4c0.5,0.3,0.7,0.9,0.8,1.4c0,0.1-0.9,0.5-1.4,0.5C302.1,191.9,297.8,191.9,293.4,191.9
		C293.4,191.9,293.4,191.9,293.4,191.9L293.4,191.9z"/>
	<path class="st1" d="M282.2,182.1c4.2,0,8.5,0,12.7,0c0.5,0,1.3,0.5,1.4,0.9c0.1,0.4-0.4,1.2-0.8,1.4c-0.6,0.3-1.4,0.3-2.1,0.3
		c-7.5,0-14.9,0-22.4,0c-0.7,0-1.6-0.1-2.2-0.4c-0.4-0.2-0.8-1-0.8-1.5c0-0.3,0.8-0.8,1.3-0.8C273.6,182.1,277.9,182.1,282.2,182.1
		C282.2,182.1,282.2,182.1,282.2,182.1z"/>
</g>
</svg>